<?xml version="1.0" encoding="UTF-8"?>
<svg id="Layer_1" data-name="Layer 1" xmlns="http://www.w3.org/2000/svg" viewBox="0 0 750 750">
  <defs>
    <style>
      .cls-1 {
        fill: none;
      }
    </style>
  </defs>
  <path class="cls-1" d="M750,0v750H0V0h750ZM393.36,149.85l5.68-66.72c-11.69-1.73-24.81-2.01-36.81-1.5C155.76,90.38,24.89,302.47,103.8,492.98c45.49,109.84,155.7,177.63,274.17,176.11l-3.34-68.19h-19.48l-.75,10.49c-65.6-4.71-127.27-39.23-167.38-90.74-45.36-58.24-60.9-136.24-41.6-207.78,27.42-101.68,123.17-175.95,229.21-174.26v11.24h18.73ZM474.28,98.91l-24.72-7.51-17.25,65.93,17.76,5.14,1.34-.63,22.86-62.94ZM541.62,133.45l-20.91-12.5-33.7,58.86,16.5,9.41,38.11-55.77ZM581.15,167.14l-46.88,47.63,13.06,14.48,51.33-43.08c.31-1.26-15.99-19.29-17.51-19.03ZM639.84,250.97c.86-1.22-9.5-20.64-11.58-23.12l-57.96,34.63,8.18,16.2,61.36-27.7ZM304.76,234.71c-9.96,1.35-18.43,10.38-19.29,20.42l-.03,239.78c1.27,14.7,14.04,23.95,28.36,20.81,70.65-40.14,140.71-81.87,210.29-123.87,8.65-8.98,8.83-23.41.3-32.5l-203.96-121.21c-5.54-2.77-9.24-4.3-15.67-3.43ZM592.65,315.44c1.87,4.73,2.1,14.1,3.9,18.2.25.56.38,1.06,1.06,1.23l66.05-12.28-6.26-24.31-64.76,17.16ZM599.4,394.85l66.95,5.91,1.23-1.78.64-23.87-.59-.91-66.26,1.28c-.97.25-1.07.91-1.23,1.77-.96,5.2,1.11,12.18-.75,17.6ZM657.76,451.13l-64.7-17.34-5.64,17.68,1.27,1.67,62.02,22.64c.86-3.54,8.4-22.71,7.05-24.65ZM628.59,521.51l-57.42-32.92-11.47,16.04,54.48,38.47,2.06-.65c1.49-2.92,13.49-19.29,12.35-20.94ZM562.7,600.15c.63.45,5.17-3.39,5.99-4.11,4.24-3.7,7.66-8.38,12.38-11.6l1.03-1.8-47.52-47.67-14.61,12.74,42.72,52.43ZM521.48,630.11l-33.7-58.86-16.94,8.66,27.42,61.45c1.49,1.3,19.8-10.52,23.22-11.25ZM450.28,659.31l-16.85-65.17-.72-.63-18.3,4.47,11.16,66.6,24.7-5.28Z"/>
  <path d="M374.63,138.61c-82.54,3.55-198.39,59.95-229.21,174.26-19.29,71.54-3.76,149.54,41.6,207.78,56.24,72.2,138.14,87.32,167.38,90.74,9.59,1.12,17.63,1.45,23.18,1.54.13,18.72.26,37.44.38,56.15-118.47,1.53-228.68-66.26-274.17-176.11C24.89,302.47,155.76,90.38,362.23,81.63c12-.51,25.12-.23,36.81,1.5-1.58,18.54-3.16,37.07-4.74,55.61-4.99-.28-11.73-.47-19.68-.13Z"/>
  <path d="M304.76,234.71c6.43-.87,10.13.65,15.67,3.43l203.96,121.21c8.53,9.1,8.35,23.52-.3,32.5-69.59,42-139.65,83.73-210.29,123.87-14.32,3.13-27.09-6.11-28.36-20.81l.03-239.78c.86-10.03,9.33-19.07,19.29-20.42Z"/>
  <path d="M599.4,394.85c1.87-5.43-.21-12.41.75-17.6.16-.85.26-1.52,1.23-1.77l66.26-1.28.59.91-.64,23.87-1.23,1.78-66.95-5.91Z"/>
  <path d="M562.7,600.15l-42.72-52.43,14.61-12.74,47.52,47.67-1.03,1.8c-4.72,3.22-8.14,7.9-12.38,11.6-.82.72-5.36,4.55-5.99,4.11Z"/>
  <path d="M581.15,167.14c1.52-.26,17.81,17.77,17.51,19.03l-51.33,43.08-13.06-14.48,46.88-47.63Z"/>
  <path d="M628.59,521.51c1.14,1.65-10.85,18.01-12.35,20.94l-2.06.65-54.48-38.47,11.47-16.04,57.42,32.92Z"/>
  <path d="M521.48,630.11c-3.42.73-21.73,12.55-23.22,11.25l-27.42-61.45,16.94-8.66,33.7,58.86Z"/>
  <path d="M657.76,451.13c1.35,1.94-6.19,21.11-7.05,24.65l-62.02-22.64-1.27-1.67,5.64-17.68,64.7,17.34Z"/>
  <polygon points="474.28 98.91 451.42 161.85 450.08 162.48 432.31 157.34 449.56 91.4 474.28 98.91"/>
  <path d="M639.84,250.97l-61.36,27.7-8.18-16.2,57.96-34.63c2.08,2.49,12.44,21.91,11.58,23.12Z"/>
  <polygon points="450.28 659.31 425.58 664.59 414.42 597.98 432.71 593.51 433.43 594.14 450.28 659.31"/>
  <path d="M592.65,315.44l64.76-17.16,6.26,24.31-66.05,12.28c-.68-.17-.81-.67-1.06-1.23-1.81-4.1-2.03-13.46-3.9-18.2Z"/>
  <polygon points="541.62 133.45 503.51 189.22 487.01 179.81 520.71 120.95 541.62 133.45"/>
</svg>